<?xml version="1.0" encoding="utf-8"?>
<!DOCTYPE svg PUBLIC "-//W3C//DTD SVG 1.1//EN" "http://www.w3.org/Graphics/SVG/1.1/DTD/svg11.dtd">
<svg version="1.1" id="Zt" xmlns="http://www.w3.org/2000/svg" xmlns:xlink="http://www.w3.org/1999/xlink" x="0px" y="0px"
	 width="512px" height="512px" viewBox="0 0 512 512" enable-background="new 0 0 512 512" xml:space="preserve">
<g>
	<path d="M69.641,430.104h107.9c13.348,0,23.261-1.243,29.74-3.737c6.469-2.49,11.806-6.374,15.991-11.655
		c4.186-5.277,7.966-12.703,11.357-22.268c3.386-9.565,7.47-24.407,12.255-44.537h29.291v109.695H0v-14.647L204.74,77.113H96.242
		c-7.77,0-13.898,0.649-18.383,1.944c-4.482,1.298-8.517,3.288-12.104,5.978c-3.587,2.69-7.127,6.626-10.611,11.805
		c-3.487,5.184-6.977,12.306-10.461,21.37c-3.487,9.07-7.125,20.375-10.908,33.925H4.484V49.615h269.598v14.347L69.641,430.104z"/>
	<path d="M312.043,186.806c9.961-1.592,18.029-4.381,24.209-8.369c6.176-3.982,11.009-9.117,14.497-15.392
		c3.484-6.279,6.226-14.147,8.219-23.612c1.991-9.462,4.082-23.263,6.278-41.396h42.444v73.826h96.538v30.188H407.69v133.008
		c0,19.33,0.791,34.725,2.389,46.178c1.592,11.462,4.581,20.429,8.967,26.9c4.381,6.477,9.365,11.11,14.946,13.896
		c5.575,2.796,12.749,4.187,21.521,4.187c7.966,0,15.44-1.642,22.414-4.93c6.972-3.289,13.85-8.021,20.627-14.198L512,423.231
		c-14.148,13.749-27.55,23.717-40.202,29.89c-12.654,6.176-25.756,9.267-39.303,9.267c-25.705,0-44.834-7.62-57.388-22.866
		c-12.555-15.241-18.83-39.1-18.83-71.583V202.053h-44.236v-15.248H312.043z"/>
</g>
</svg>
