<?xml version="1.0" encoding="utf-8"?>
<!DOCTYPE svg PUBLIC "-//W3C//DTD SVG 1.1//EN" "http://www.w3.org/Graphics/SVG/1.1/DTD/svg11.dtd">
<svg version="1.1" id="Zt" xmlns="http://www.w3.org/2000/svg" xmlns:xlink="http://www.w3.org/1999/xlink" x="0px" y="0px"
	 width="512px" height="512px" viewBox="0 0 512 512" enable-background="new 0 0 512 512" xml:space="preserve">
<g>
	<path d="M149.445,355.549h61.694c7.632,0,13.3-0.711,17.005-2.137c3.699-1.424,6.75-3.645,9.143-6.664
		c2.393-3.018,4.555-7.264,6.494-12.732c1.936-5.469,4.271-13.955,7.007-25.465h16.748v62.721h-157.91v-8.375l117.065-209.179
		h-62.036c-4.443,0-7.947,0.371-10.511,1.111c-2.563,0.742-4.87,1.88-6.921,3.418s-4.075,3.789-6.067,6.75
		c-1.994,2.964-3.989,7.036-5.981,12.219c-1.994,5.186-4.074,11.65-6.237,19.397h-16.748v-58.618h154.149v8.203L149.445,355.549z"/>
	<path d="M288.044,216.437c5.695-0.91,10.309-2.505,13.842-4.785c3.531-2.277,6.295-5.213,8.289-8.801
		c1.992-3.59,3.559-8.089,4.699-13.501c1.139-5.41,2.334-13.301,3.59-23.669h24.268v42.212h55.199v17.261h-55.199v76.05
		c0,11.053,0.453,19.854,1.367,26.404c0.91,6.553,2.619,11.68,5.127,15.381c2.504,3.703,5.354,6.352,8.545,7.945
		c3.188,1.598,7.289,2.393,12.305,2.393c4.555,0,8.828-0.939,12.816-2.818c3.986-1.881,7.918-4.586,11.793-8.119l7.689,9.229
		c-8.09,7.861-15.752,13.561-22.986,17.09c-7.236,3.531-14.727,5.299-22.473,5.299c-14.697,0-25.635-4.357-32.813-13.074
		c-7.178-8.715-10.766-22.357-10.766-40.93v-94.849h-25.293V216.437z"/>
</g>
</svg>
